<?xml version="1.0" encoding="iso-8859-1"?>
<!-- Generator: Adobe Illustrator 19.0.0, SVG Export Plug-In . SVG Version: 6.00 Build 0)  -->
<svg version="1.1" id="Capa_1" xmlns="http://www.w3.org/2000/svg" xmlns:xlink="http://www.w3.org/1999/xlink" x="0px" y="0px"
	 viewBox="0 0 512 512" style="enable-background:new 0 0 512 512;" xml:space="preserve">
<path style="fill:#CFD8DC;" d="M443.499,417.941l-181.333-128c-3.689-2.606-8.62-2.606-12.309,0l-181.333,128
	c-2.837,1.999-4.525,5.254-4.523,8.725v10.667C64,443.224,68.776,448,74.667,448h362.667c5.891,0,10.667-4.776,10.667-10.667
	v-10.667C448.007,423.2,446.328,419.945,443.499,417.941z"/>
<path style="fill:#FAFAFA;" d="M262.165,289.941l-181.333-128c-4.807-3.405-11.465-2.268-14.87,2.539
	c-1.281,1.808-1.967,3.97-1.962,6.186v256c-0.012,5.891,4.755,10.676,10.646,10.688c2.216,0.004,4.378-0.682,6.186-1.962
	l181.333-128c4.813-3.397,5.961-10.052,2.564-14.865c-0.702-0.995-1.569-1.862-2.564-2.564V289.941z"/>
<path style="fill:#EEEEEE;" d="M442.24,161.195c-3.546-1.812-7.802-1.525-11.072,0.747l-181.333,128
	c-4.813,3.397-5.961,10.052-2.564,14.865c0.702,0.995,1.569,1.862,2.564,2.564l181.333,128c4.807,3.405,11.465,2.268,14.87-2.539
	c1.277-1.802,1.962-3.956,1.962-6.165v-256C448,166.681,445.779,163.028,442.24,161.195z"/>
<path style="fill:#ECEFF1;" d="M468.8,71.339C467.362,66.96,463.275,64,458.667,64H53.333c-5.891,0-10.667,4.776-10.667,10.667
	c0,3.357,1.581,6.519,4.267,8.533L249.6,232.533c3.762,2.77,8.889,2.77,12.651,0L464.917,83.2
	C468.631,80.495,470.195,75.716,468.8,71.339z"/>
<path style="fill:#F44336;" d="M458.667,64c-2.308,0-4.554,0.749-6.4,2.133L256,210.752L59.733,66.133
	C57.887,64.749,55.641,64,53.333,64C23.878,64,0,87.878,0,117.333v277.333C0,424.122,23.878,448,53.333,448h21.333
	c5.891,0,10.667-4.776,10.667-10.667v-246.08l164.501,116.139c3.689,2.606,8.62,2.606,12.309,0l164.523-116.139v246.08
	c0,5.891,4.776,10.667,10.667,10.667h21.333C488.122,448,512,424.122,512,394.667V117.333C512,87.878,488.122,64,458.667,64z"/>
<path d="M458.667,448H53.333C23.878,448,0,424.122,0,394.667V117.333C0,87.878,23.878,64,53.333,64h405.333
	C488.122,64,512,87.878,512,117.333v277.333C512,424.122,488.122,448,458.667,448z M53.333,85.333c-17.673,0-32,14.327-32,32
	v277.333c0,17.673,14.327,32,32,32h405.333c17.673,0,32-14.327,32-32V117.333c0-17.673-14.327-32-32-32H53.333z"/>
<path d="M256,234.667c-2.308,0-4.554-0.749-6.4-2.133L46.933,83.2c-4.711-3.537-5.662-10.224-2.125-14.934
	c3.534-4.707,10.214-5.662,14.925-2.132L256,210.752L452.267,66.133c5.01-3.099,11.584-1.55,14.683,3.46
	c2.734,4.42,1.885,10.166-2.011,13.606L262.272,232.533C260.461,233.892,258.264,234.639,256,234.667z"/>
<path d="M437.333,448c-5.891,0-10.667-4.776-10.667-10.667v-246.08L262.144,307.392c-3.685,2.596-8.603,2.596-12.288,0
	L85.333,191.253v246.08c0,5.891-4.776,10.667-10.667,10.667S64,443.224,64,437.333V170.667c-0.003-5.891,4.77-10.669,10.661-10.673
	c2.202-0.001,4.35,0.679,6.15,1.947L256,285.611l175.189-123.733c4.816-3.393,11.47-2.24,14.864,2.575
	c1.281,1.818,1.962,3.991,1.947,6.214v266.667C448,443.224,443.224,448,437.333,448z"/>
<path d="M437.333,437.333c-2.199,0.002-4.345-0.676-6.144-1.941L256,311.723L80.811,435.456c-4.905,3.263-11.526,1.931-14.789-2.974
	c-3.138-4.718-2.04-11.066,2.501-14.455l181.333-128c3.685-2.596,8.603-2.596,12.288,0l181.333,128
	c4.819,3.389,5.978,10.042,2.59,14.861c-1.999,2.843-5.258,4.534-8.734,4.531V437.333z"/>
<g>
</g>
<g>
</g>
<g>
</g>
<g>
</g>
<g>
</g>
<g>
</g>
<g>
</g>
<g>
</g>
<g>
</g>
<g>
</g>
<g>
</g>
<g>
</g>
<g>
</g>
<g>
</g>
<g>
</g>
</svg>
